<?xml version="1.0" standalone="no"?>
<!DOCTYPE svg PUBLIC "-//W3C//DTD SVG 20010904//EN"
 "http://www.w3.org/TR/2001/REC-SVG-20010904/DTD/svg10.dtd">
<svg version="1.0" xmlns="http://www.w3.org/2000/svg"
 width="1024.000000pt" height="1024.000000pt" viewBox="0 0 1024.000000 1024.000000"
 preserveAspectRatio="xMidYMid meet">

<g transform="translate(0.000000,1024.000000) scale(0.100000,-0.100000)"
fill="#000000" stroke="none">
<path d="M0 5120 l0 -5120 5120 0 5120 0 0 5120 0 5120 -5120 0 -5120 0 0
-5120z m5103 2903 c-13 -2 -35 -2 -50 0 -16 2 -5 4 22 4 28 0 40 -2 28 -4z
m-210 -10 c-7 -2 -19 -2 -25 0 -7 3 -2 5 12 5 14 0 19 -2 13 -5z m405 0 c-10
-2 -26 -2 -35 0 -10 3 -2 5 17 5 19 0 27 -2 18 -5z m115 -49 c184 -20 327 -55
537 -131 69 -25 127 -49 128 -54 2 -5 8 -9 13 -9 31 0 242 -116 369 -204 90
-62 188 -145 304 -256 108 -104 205 -217 281 -325 120 -172 128 -175 268 -126
116 42 400 159 544 225 127 58 163 69 122 37 -27 -20 -181 -101 -194 -101 -10
0 -158 -56 -200 -76 -45 -20 -272 -109 -331 -128 -28 -9 -60 -15 -72 -13 -31
5 -94 68 -159 160 -124 175 -286 346 -463 488 -74 60 -236 168 -295 197 -221
109 -343 160 -419 177 -6 1 -18 4 -26 7 -34 13 -128 30 -170 31 -25 1 -50 8
-55 15 -7 9 -20 11 -38 7 -26 -7 -27 -9 -12 -24 8 -10 15 -36 15 -59 0 -44 -4
-47 -57 -42 -15 1 -23 -4 -23 -15 0 -16 -22 -45 -34 -45 -3 0 -6 6 -6 14 0 17
-34 10 -52 -11 -9 -12 -9 -16 3 -24 12 -8 10 -13 -10 -29 -19 -16 -38 -20
-102 -20 -64 0 -79 -3 -79 -15 0 -11 12 -15 46 -15 27 0 43 -4 39 -10 -3 -5
-42 -10 -86 -10 l-79 0 0 -30 0 -30 -71 0 c-44 0 -68 -4 -64 -10 4 -6 -12 -10
-42 -9 -39 1 -43 3 -23 9 17 5 -6 8 -68 9 -55 1 -91 -3 -87 -8 3 -5 -4 -13
-16 -16 -12 -4 -24 -2 -29 4 -9 16 -80 27 -80 13 0 -6 17 -12 37 -14 51 -4 53
-25 4 -33 -23 -4 -41 -11 -41 -16 0 -6 -4 -8 -9 -4 -5 3 -12 2 -15 -3 -2 -4
-17 -7 -33 -6 -15 0 -31 -4 -35 -10 -10 -15 -60 -14 -76 2 -7 6 -27 12 -43 12
-27 0 -29 2 -29 40 l0 40 -40 0 -40 0 0 40 0 40 160 0 160 0 0 40 0 40 40 0
c33 0 40 3 40 20 0 17 -7 20 -40 20 l-40 0 0 61 c0 33 4 58 8 55 12 -7 105 15
95 24 -4 4 -33 3 -63 -2 -57 -10 -182 -20 -142 -11 12 2 22 8 22 13 0 5 -16 4
-35 -1 -19 -6 -39 -7 -44 -4 -5 3 -12 1 -16 -5 -3 -5 -17 -10 -30 -10 -14 0
-40 -9 -60 -20 -20 -11 -52 -24 -73 -30 -124 -31 -154 -41 -217 -69 -115 -52
-178 -84 -207 -103 -14 -10 -33 -18 -42 -18 -9 0 -16 -5 -16 -10 0 -6 -10 -14
-22 -19 -25 -9 -171 -107 -232 -155 -20 -16 -39 -26 -43 -22 -3 3 -4 7 -2 9
14 9 135 102 139 107 3 3 51 36 108 74 95 63 275 160 367 198 22 9 58 24 80
33 163 68 338 115 555 151 152 25 413 24 643 -2z m-550 -461 c-13 -2 -33 -2
-45 0 -13 2 -3 4 22 4 25 0 35 -2 23 -4z m284 1 c-3 -3 -12 -4 -19 -1 -8 3 -5
6 6 6 11 1 17 -2 13 -5z m-1651 -145 c-8 -12 -27 -27 -43 -35 -24 -12 -22 -9
11 21 45 40 53 44 32 14z m-101 -95 c-9 -14 -14 -32 -11 -40 3 -8 1 -14 -4
-14 -6 0 -10 8 -10 17 0 13 -8 9 -30 -15 -16 -18 -30 -37 -30 -43 0 -5 -5 -9
-12 -9 -6 0 -23 -10 -36 -22 -45 -41 -14 -2 60 76 73 76 105 98 73 50z m-173
-176 c-7 -7 -12 -8 -12 -2 0 14 12 26 19 19 2 -3 -1 -11 -7 -17z m625 -10 c-3
-8 -6 -5 -6 6 -1 11 2 17 5 13 3 -3 4 -12 1 -19z m-637 -24 c-7 -7 -18 -10
-26 -7 -11 4 -12 9 -4 19 7 7 18 10 26 7 11 -4 12 -9 4 -19z m-55 -53 c-3 -6
-11 -11 -17 -11 -6 0 -6 6 2 15 14 17 26 13 15 -4z m182 -643 c-3 -8 -6 -5 -6
6 -1 11 2 17 5 13 3 -3 4 -12 1 -19z m-126 -309 c-5 -13 -10 -19 -10 -12 -1
15 10 45 15 40 3 -2 0 -15 -5 -28z m-42 -179 c-70 -351 -41 -725 83 -1060 21
-57 108 -241 117 -250 3 -3 29 -39 56 -80 28 -41 78 -110 113 -152 34 -42 62
-80 62 -83 0 -3 -9 -5 -19 -5 -26 0 -148 134 -218 238 -98 147 -182 352 -238
577 -26 109 -41 359 -27 490 15 155 73 437 87 423 2 -2 -5 -46 -16 -98z m4394
-140 l6 -55 -14 55 c-8 30 -17 82 -20 115 l-5 60 14 -60 c7 -33 16 -85 19
-115z m-4456 -37 c-3 -10 -5 -2 -5 17 0 19 2 27 5 18 2 -10 2 -26 0 -35z
m1348 -1533 c-3 -5 -12 -10 -18 -10 -7 0 -6 4 3 10 19 12 23 12 15 0z m-61
-35 c-10 -8 -26 -14 -34 -15 -8 0 -4 6 10 14 34 19 48 20 24 1z m-119 -65
c-16 -11 -34 -20 -40 -20 -5 0 4 9 20 20 17 11 35 20 40 20 6 0 -3 -9 -20 -20z
m-83 -41 c-18 -12 -35 -19 -38 -16 -3 3 7 12 23 21 42 23 53 19 15 -5z m-1752
-7 c0 -26 33 -86 76 -140 195 -241 383 -280 839 -175 137 31 331 101 563 200
6 3 12 3 12 -1 0 -14 -256 -118 -433 -175 -282 -90 -612 -116 -762 -60 -99 37
-165 86 -234 172 -44 57 -94 197 -70 197 5 0 9 -8 9 -18z m1700 -17 c0 -6 -56
-35 -67 -35 -4 0 6 9 22 20 29 19 45 25 45 15z m-120 -60 c-25 -13 -52 -24
-60 -24 -8 -1 8 10 35 23 65 32 83 32 25 1z m1073 -722 c-18 -2 -48 -2 -65 0
-18 2 -4 4 32 4 36 0 50 -2 33 -4z m100 0 c-7 -2 -21 -2 -30 0 -10 3 -4 5 12
5 17 0 24 -2 18 -5z"/>
<path d="M4590 7870 c-11 -7 -7 -10 18 -10 17 0 32 5 32 10 0 13 -30 13 -50 0z"/>
<path d="M5440 7866 c0 -2 7 -7 16 -10 8 -3 12 -2 9 4 -6 10 -25 14 -25 6z"/>
<path d="M4720 7640 c0 -33 3 -40 20 -40 17 0 20 7 20 40 0 33 -3 40 -20 40
-17 0 -20 -7 -20 -40z"/>
<path d="M4480 7510 c0 -5 9 -10 19 -10 11 0 23 5 26 10 4 6 -5 10 -19 10 -14
0 -26 -4 -26 -10z"/>
</g>
</svg>
